<?xml version="1.0" encoding="UTF-8" standalone="no"?>
<!DOCTYPE svg PUBLIC "-//W3C//DTD SVG 1.1//EN" "http://www.w3.org/Graphics/SVG/1.1/DTD/svg11.dtd">
<svg width="100%" height="100%" viewBox="0 0 1180 1114" version="1.1" xmlns="http://www.w3.org/2000/svg" xmlns:xlink="http://www.w3.org/1999/xlink" xml:space="preserve" xmlns:serif="http://www.serif.com/" style="fill-rule:evenodd;clip-rule:evenodd;stroke-linejoin:round;stroke-miterlimit:2;">
    <g transform="matrix(1,0,0,1,-9778.299476,-24272.648038)">
        <g id="Camada2">
        </g>
        <g id="Camada3">
        </g>
        <g id="Camada4">
        </g>
        <g id="logo-fundo-roxo" transform="matrix(0.413709,0,0,0.584697,6167.641932,14058.568515)">
            <rect x="8197.073" y="17027.518" width="3912.35" height="2787.699" style="fill:none;"/>
            <g transform="matrix(1.444371,0,0,1.444371,-3435.539334,-7754.895065)">
                <g transform="matrix(0.843022,-0.344384,0.486719,0.596491,6158.898095,16182.030409)">
                    <path d="M1329.645,4277.737L1329.645,3853.131L1697.365,4065.434L2065.084,3853.131L2065.084,4277.737L2432.804,4490.04L2065.084,4702.343L2065.084,5126.949L1697.365,4914.646L1329.645,5126.949L1329.645,4702.343L961.925,4490.04L1329.645,4277.737ZM1493.284,4371.973L1289.62,4489.559L1493.492,4607.265L1493.7,4843.277L1698.198,4725.451L1902.486,4843.397L1902.486,4607.746L2106.358,4490.28L1902.486,4372.574L1902.486,4135.721L1697.365,4254.147L1493.076,4136.201L1493.284,4371.973Z" style="fill:rgb(124,58,237);"/>
                </g>
                <g transform="matrix(0.453635,0,0,0.320975,5653.707252,16294.379657)">
                    <path d="M7865.749,4554.773L7718.77,4300.197L8012.728,4300.197L8159.707,4045.622L8306.686,4300.197L8600.644,4300.197L8453.665,4554.773L8600.644,4809.348L8306.686,4809.348L8159.707,5063.923L8012.728,4809.348L7718.77,4809.348L7865.749,4554.773ZM8160.441,4272.03L8160.04,4271.335L8159.633,4272.039C8159.902,4272.036 8160.172,4272.033 8160.441,4272.03Z" style="fill:rgb(124,58,237);"/>
                </g>
                <g transform="matrix(0.374305,0,0,0.264844,5820.397568,16392.137893)">
                    <path d="M7865.749,4554.773L7718.77,4300.197L8012.728,4300.197L8159.707,4045.622L8306.686,4300.197L8600.644,4300.197L8453.665,4554.773L8600.644,4809.348L8306.686,4809.348L8159.707,5063.923L8012.728,4809.348L7718.77,4809.348L7865.749,4554.773ZM8160.441,4272.03L8160.04,4271.335L8159.633,4272.039C8159.902,4272.036 8160.172,4272.033 8160.441,4272.03Z" style="fill:rgb(124,58,237);"/>
                </g>
                <g transform="matrix(0.752637,0,0,0.532538,2611.576599,15614.759079)">
                    <path d="M7865.749,4554.773L7718.77,4300.197L8012.728,4300.197L8159.707,4045.622L8306.686,4300.197L8600.644,4300.197L8453.665,4554.773L8600.644,4809.348L8306.686,4809.348L8159.707,5063.923L8012.728,4809.348L7718.77,4809.348L7865.749,4554.773ZM8160.441,4272.03L8160.04,4271.335L8159.633,4272.039C8159.902,4272.036 8160.172,4272.033 8160.441,4272.03Z" style="fill:rgb(124,58,237);"/>
                </g>
                <g transform="matrix(1,0,0,1.176035,-3.382392,-3199.949026)">
                    <g transform="matrix(3.589392,0,0,3.503329,-26826.898827,-71034.521893)">
                        <path d="M10185.575,25470.974L10185.575,25496.492C10185.575,25499.769 10181.259,25502.429 10175.944,25502.429L10156.683,25502.429C10151.367,25502.429 10147.052,25499.769 10147.052,25496.492L10147.052,25470.974C10147.052,25467.697 10151.367,25465.037 10156.683,25465.037L10175.944,25465.037C10181.259,25465.037 10185.575,25467.697 10185.575,25470.974Z" style="fill:rgb(124,58,237);"/>
                    </g>
                    <g transform="matrix(3.589392,0,0,3.503329,-26597.695689,-71034.521893)">
                        <path d="M10185.575,25470.974L10185.575,25496.492C10185.575,25499.769 10181.259,25502.429 10175.944,25502.429L10156.683,25502.429C10151.367,25502.429 10147.052,25499.769 10147.052,25496.492L10147.052,25470.974C10147.052,25467.697 10151.367,25465.037 10156.683,25465.037L10175.944,25465.037C10181.259,25465.037 10185.575,25467.697 10185.575,25470.974Z" style="fill:rgb(124,58,237);"/>
                    </g>
                </g>
            </g>
        </g>
    </g>
</svg>
