<?xml version="1.0" encoding="UTF-8" standalone="no"?>
<!DOCTYPE svg PUBLIC "-//W3C//DTD SVG 1.1//EN" "http://www.w3.org/Graphics/SVG/1.1/DTD/svg11.dtd">
<svg width="100%" height="100%" viewBox="0 0 938 1084" version="1.1" xmlns="http://www.w3.org/2000/svg" xmlns:xlink="http://www.w3.org/1999/xlink" xml:space="preserve" xmlns:serif="http://www.serif.com/" style="fill-rule:evenodd;clip-rule:evenodd;stroke-linejoin:round;stroke-miterlimit:2;">
    <g transform="matrix(1,0,0,1,-12485.388274,-26484.90916)">
        <g id="Camada2">
        </g>
        <g id="Camada3">
        </g>
        <g id="Camada4">
        </g>
        <g id="logo-fundo-roxo" transform="matrix(0.413709,0,0,0.584697,8753.854079,16255.504466)">
            <rect x="8197.073" y="17027.518" width="3912.35" height="2787.699" style="fill:none;"/>
            <g transform="matrix(1.265834,0,0,1.265834,-3370.258868,-5176.395183)">
                <g transform="matrix(1.217637,-0.497418,0.703003,0.861554,5460.195182,15617.962258)">
                    <path d="M1329.645,4277.737L1329.645,3853.131L1697.365,4065.434L2065.084,3853.131L2065.084,4277.737L2432.804,4490.04L2065.084,4702.343L2065.084,5126.949L1697.365,4914.646L1329.645,5126.949L1329.645,4702.343L961.925,4490.04L1329.645,4277.737ZM1493.284,4371.973L1289.62,4489.559L1493.492,4607.265L1493.7,4843.277L1698.198,4725.451L1902.486,4843.397L1902.486,4607.746L2106.358,4490.28L1902.486,4372.574L1902.486,4135.721L1697.365,4254.147L1493.076,4136.201L1493.284,4371.973Z" style="fill:white;"/>
                </g>
                <g transform="matrix(1.444371,0,0,1.698632,-3440.424763,-12376.809011)">
                    <g transform="matrix(3.589392,0,0,3.503329,-26826.898827,-71034.521893)">
                        <path d="M10185.575,25470.974L10185.575,25496.492C10185.575,25499.769 10181.259,25502.429 10175.944,25502.429L10156.683,25502.429C10151.367,25502.429 10147.052,25499.769 10147.052,25496.492L10147.052,25470.974C10147.052,25467.697 10151.367,25465.037 10156.683,25465.037L10175.944,25465.037C10181.259,25465.037 10185.575,25467.697 10185.575,25470.974Z" style="fill:white;"/>
                    </g>
                    <g transform="matrix(3.589392,0,0,3.503329,-26597.695689,-71034.521893)">
                        <path d="M10185.575,25470.974L10185.575,25496.492C10185.575,25499.769 10181.259,25502.429 10175.944,25502.429L10156.683,25502.429C10151.367,25502.429 10147.052,25499.769 10147.052,25496.492L10147.052,25470.974C10147.052,25467.697 10151.367,25465.037 10156.683,25465.037L10175.944,25465.037C10181.259,25465.037 10185.575,25467.697 10185.575,25470.974Z" style="fill:white;"/>
                    </g>
                </g>
            </g>
        </g>
    </g>
</svg>
