<?xml version="1.0" encoding="UTF-8" standalone="no"?><!DOCTYPE svg PUBLIC "-//W3C//DTD SVG 1.1//EN" "http://www.w3.org/Graphics/SVG/1.1/DTD/svg11.dtd"><svg width="100%" height="100%" viewBox="0 0 2753 1510" version="1.1" xmlns="http://www.w3.org/2000/svg" xmlns:xlink="http://www.w3.org/1999/xlink" xml:space="preserve" xmlns:serif="http://www.serif.com/" style="fill-rule:evenodd;clip-rule:evenodd;stroke-linejoin:round;stroke-miterlimit:2;"><g id="Camada2"></g><g id="Camada3"></g><g id="Camada4"></g><rect id="logo-marca-quadrado-fundo-branco" x="-611.478" y="-675.407" width="3912.35" height="2787.699" style="fill:none;"/><g><g><path d="M1071.864,348.939l-148.088,-85.499l148.088,-85.499l-0,-170.998l148.088,85.499l148.088,-85.499l0,170.998l148.088,85.499l-148.088,85.499l-0,170.998l-148.088,-85.499l-148.088,85.499l0,-170.998Zm65.817,-38.096l0,94.708l82.103,-47.402l82.355,47.451l0.084,-95.047l82.271,-47.499l-82.187,-47.451l0.084,-94.757l-82.104,47.403l-82.607,-47.693l0,95.386l-82.271,47.499l82.271,47.403Z" style="fill:#7c3aed;"/><path d="M1434.03,1.479c10.839,-0.979 21.816,-1.479 32.908,-1.479c11.092,0 22.069,0.5 32.908,1.479c22.6,2.041 44.603,6.162 65.817,12.171c22.944,6.499 44.965,15.206 65.817,25.877c15.159,7.757 29.701,16.552 43.531,26.291c7.652,5.388 15.086,11.065 22.286,17.015c17.771,14.684 34.118,31.032 48.802,48.802c5.95,7.2 11.627,14.634 17.015,22.286c9.739,13.83 18.534,28.372 26.291,43.531c10.671,20.852 19.378,42.873 25.877,65.817c6.009,21.214 10.13,43.217 12.171,65.817c0.979,10.839 1.479,21.816 1.479,32.908c0,11.092 -0.5,22.069 -1.479,32.908c-2.041,22.6 -6.162,44.603 -12.171,65.817c-6.499,22.944 -15.206,44.965 -25.877,65.817c-7.757,15.159 -16.552,29.701 -26.291,43.531c-5.388,7.652 -11.065,15.086 -17.015,22.286c-14.684,17.771 -31.032,34.118 -48.802,48.802c-7.2,5.95 -14.634,11.627 -22.286,17.015c-13.83,9.739 -28.372,18.534 -43.531,26.291c-20.852,10.671 -42.873,19.378 -65.817,25.877c-21.214,6.009 -43.217,10.13 -65.817,12.171c-10.839,0.979 -21.816,1.479 -32.908,1.479c11.123,0 22.103,-0.614 32.908,-1.811c22.818,-2.527 44.858,-7.651 65.817,-15.069c23.43,-8.292 45.51,-19.452 65.817,-33.055c7.425,-4.974 14.613,-10.275 21.543,-15.882c16.266,-13.16 31.113,-28.007 44.274,-44.274c5.607,-6.93 10.908,-14.118 15.882,-21.543c13.604,-20.307 24.763,-42.387 33.055,-65.817c7.418,-20.959 12.542,-42.999 15.069,-65.817c1.197,-10.806 1.811,-21.786 1.811,-32.908c0,-11.123 -0.614,-22.103 -1.811,-32.908c-2.527,-22.818 -7.651,-44.858 -15.069,-65.817c-8.292,-23.43 -19.452,-45.51 -33.055,-65.817c-4.974,-7.425 -10.275,-14.613 -15.882,-21.543c-13.16,-16.266 -28.007,-31.113 -44.274,-44.274c-6.93,-5.607 -14.118,-10.908 -21.543,-15.882c-20.307,-13.604 -42.387,-24.763 -65.817,-33.055c-20.959,-7.418 -42.999,-12.542 -65.817,-15.069c-10.806,-1.197 -21.786,-1.811 -32.908,-1.811c-11.123,0 -22.103,0.614 -32.908,1.811l0,-131.966Z" style="fill:#7c3aed;"/></g><g transform="matrix(0.961951,0,0,1,-553.708946,0)"><g transform="matrix(610.798019,0,0,610.798019,562.783742,1386.080323)"><path d="M0.276,0.011c-0.057,0 -0.105,-0.01 -0.145,-0.029c-0.04,-0.019 -0.077,-0.048 -0.109,-0.087l0.09,-0.09c0.021,0.027 0.045,0.048 0.072,0.063c0.027,0.015 0.06,0.023 0.1,0.023c0.036,0 0.064,-0.007 0.085,-0.021c0.021,-0.014 0.031,-0.033 0.031,-0.058c0,-0.021 -0.006,-0.038 -0.018,-0.052c-0.012,-0.013 -0.028,-0.025 -0.047,-0.034c-0.02,-0.009 -0.041,-0.018 -0.065,-0.025c-0.024,-0.008 -0.047,-0.017 -0.071,-0.027c-0.024,-0.01 -0.045,-0.023 -0.065,-0.038c-0.02,-0.015 -0.036,-0.034 -0.048,-0.058c-0.012,-0.024 -0.018,-0.053 -0.018,-0.089c0,-0.042 0.01,-0.079 0.031,-0.109c0.021,-0.03 0.049,-0.053 0.085,-0.069c0.036,-0.016 0.077,-0.024 0.122,-0.024c0.048,-0 0.091,0.009 0.13,0.027c0.039,0.018 0.07,0.041 0.095,0.07l-0.09,0.09c-0.02,-0.022 -0.042,-0.039 -0.063,-0.05c-0.022,-0.011 -0.046,-0.016 -0.074,-0.016c-0.031,0 -0.056,0.006 -0.073,0.018c-0.018,0.012 -0.027,0.029 -0.027,0.052c0,0.019 0.006,0.035 0.018,0.047c0.012,0.012 0.028,0.022 0.047,0.031c0.02,0.009 0.041,0.017 0.065,0.025c0.024,0.008 0.047,0.017 0.071,0.027c0.024,0.01 0.045,0.023 0.065,0.039c0.02,0.016 0.035,0.036 0.047,0.061c0.012,0.025 0.018,0.056 0.018,0.093c0,0.065 -0.023,0.116 -0.069,0.154c-0.046,0.037 -0.109,0.056 -0.189,0.056Z" style="fill:#fff;fill-rule:nonzero;"/></g><g transform="matrix(610.798019,0,0,610.798019,910.327815,1386.080323)"><path d="M0.058,-0l0,-0.483l0.132,0l0,0.483l-0.132,-0Zm0.066,-0.56c-0.021,0 -0.039,-0.007 -0.053,-0.022c-0.014,-0.014 -0.021,-0.032 -0.021,-0.053c0,-0.021 0.007,-0.039 0.021,-0.053c0.014,-0.014 0.032,-0.022 0.053,-0.022c0.022,0 0.04,0.007 0.053,0.022c0.014,0.014 0.021,0.032 0.021,0.053c0,0.021 -0.007,0.039 -0.021,0.053c-0.014,0.014 -0.031,0.022 -0.053,0.022Z" style="fill:#fff;fill-rule:nonzero;"/></g><g transform="matrix(610.798019,0,0,610.798019,1061.805724,1386.080323)"><path d="M0.383,-0l0,-0.277c0,-0.029 -0.009,-0.052 -0.027,-0.07c-0.018,-0.018 -0.041,-0.027 -0.069,-0.027c-0.019,0 -0.036,0.004 -0.051,0.012c-0.015,0.008 -0.026,0.02 -0.034,0.034c-0.008,0.015 -0.012,0.032 -0.012,0.051l-0.051,-0.027c0,-0.038 0.008,-0.07 0.025,-0.099c0.016,-0.028 0.039,-0.051 0.068,-0.067c0.029,-0.016 0.062,-0.024 0.098,-0.024c0.036,-0 0.067,0.009 0.095,0.026c0.028,0.018 0.05,0.041 0.066,0.069c0.016,0.029 0.024,0.059 0.024,0.091l0,0.306l-0.132,-0Zm-0.325,-0l0,-0.483l0.132,0l0,0.483l-0.132,-0Z" style="fill:#fff;fill-rule:nonzero;"/></g><g transform="matrix(610.798019,0,0,610.798019,1405.07421,1386.080323)"><path d="M0.286,0.011c-0.049,0 -0.093,-0.011 -0.132,-0.033c-0.039,-0.022 -0.07,-0.052 -0.093,-0.09c-0.023,-0.038 -0.034,-0.081 -0.034,-0.128c0,-0.048 0.011,-0.091 0.034,-0.129c0.023,-0.038 0.054,-0.068 0.093,-0.09c0.039,-0.022 0.084,-0.033 0.133,-0.033c0.038,0 0.072,0.007 0.104,0.021c0.032,0.014 0.06,0.034 0.084,0.06l-0.085,0.086c-0.013,-0.015 -0.028,-0.025 -0.045,-0.033c-0.017,-0.007 -0.037,-0.011 -0.058,-0.011c-0.025,0 -0.046,0.006 -0.065,0.017c-0.019,0.011 -0.034,0.026 -0.045,0.045c-0.011,0.019 -0.016,0.042 -0.016,0.068c0,0.025 0.005,0.048 0.016,0.067c0.011,0.02 0.026,0.035 0.045,0.046c0.019,0.011 0.041,0.017 0.065,0.017c0.022,0 0.042,-0.004 0.059,-0.011c0.018,-0.008 0.033,-0.019 0.045,-0.034l0.085,0.085c-0.024,0.027 -0.052,0.047 -0.084,0.061c-0.032,0.014 -0.067,0.021 -0.106,0.021Z" style="fill:#fff;fill-rule:nonzero;"/></g><g transform="matrix(610.798019,0,0,610.798019,1705.586836,1386.080323)"><path d="M0.058,-0l0,-0.483l0.132,0l0,0.483l-0.132,-0Zm0.132,-0.267l-0.051,-0.035c0.006,-0.059 0.024,-0.105 0.052,-0.14c0.029,-0.034 0.07,-0.052 0.124,-0.052c0.024,-0 0.045,0.004 0.063,0.012c0.019,0.008 0.035,0.02 0.05,0.037l-0.081,0.094c-0.008,-0.008 -0.017,-0.014 -0.027,-0.018c-0.01,-0.004 -0.022,-0.006 -0.036,-0.006c-0.028,0 -0.051,0.009 -0.068,0.026c-0.017,0.017 -0.026,0.044 -0.026,0.081Z" style="fill:#fff;fill-rule:nonzero;"/></g><g transform="matrix(610.798019,0,0,610.798019,1951.738437,1386.080323)"><path d="M0.285,0.011c-0.049,0 -0.092,-0.011 -0.131,-0.034c-0.039,-0.022 -0.07,-0.053 -0.093,-0.091c-0.023,-0.038 -0.034,-0.081 -0.034,-0.129c0,-0.047 0.011,-0.09 0.034,-0.128c0.023,-0.038 0.054,-0.068 0.093,-0.09c0.039,-0.022 0.083,-0.033 0.131,-0.033c0.049,0 0.093,0.011 0.132,0.033c0.039,0.022 0.07,0.052 0.093,0.09c0.023,0.038 0.034,0.081 0.034,0.128c0,0.047 -0.011,0.09 -0.034,0.129c-0.023,0.038 -0.054,0.069 -0.093,0.091c-0.039,0.022 -0.083,0.033 -0.132,0.033Zm-0,-0.122c0.025,-0 0.046,-0.006 0.065,-0.017c0.019,-0.011 0.033,-0.026 0.044,-0.046c0.01,-0.02 0.016,-0.042 0.016,-0.068c0,-0.025 -0.005,-0.048 -0.016,-0.067c-0.011,-0.019 -0.025,-0.034 -0.044,-0.045c-0.019,-0.011 -0.04,-0.017 -0.065,-0.017c-0.024,0 -0.045,0.006 -0.064,0.017c-0.019,0.011 -0.034,0.026 -0.044,0.045c-0.01,0.019 -0.016,0.042 -0.016,0.067c0,0.025 0.005,0.048 0.016,0.067c0.011,0.02 0.025,0.035 0.044,0.046c0.019,0.011 0.04,0.017 0.064,0.017Z" style="fill:#fff;fill-rule:nonzero;"/></g><g transform="matrix(610.798019,0,0,610.798019,2299.28251,1386.080323)"><path d="M0.019,-0l0.284,-0.703l0.111,0l0.281,0.703l-0.145,-0l-0.218,-0.577l0.049,0l-0.221,0.577l-0.143,-0Zm0.151,-0.131l0,-0.114l0.378,0l0,0.114l-0.378,0Z" style="fill:#fff;fill-rule:nonzero;"/></g><g transform="matrix(610.798019,0,0,610.798019,2736.003093,1386.080323)"><path d="M0.326,0.01c-0.035,0 -0.066,-0.007 -0.094,-0.021c-0.028,-0.014 -0.05,-0.034 -0.067,-0.059c-0.017,-0.025 -0.026,-0.053 -0.027,-0.085l0,-0.172c0.001,-0.032 0.011,-0.06 0.027,-0.085c0.017,-0.025 0.039,-0.045 0.067,-0.06c0.028,-0.015 0.059,-0.022 0.094,-0.022c0.045,-0 0.085,0.011 0.12,0.033c0.035,0.022 0.063,0.052 0.083,0.09c0.02,0.038 0.031,0.081 0.031,0.129c0,0.047 -0.01,0.09 -0.031,0.128c-0.02,0.038 -0.048,0.068 -0.083,0.09c-0.035,0.022 -0.075,0.033 -0.12,0.033Zm-0.269,0.193l0,-0.685l0.132,0l0,0.127l-0.022,0.118l0.021,0.117l0,0.324l-0.13,0Zm0.246,-0.314c0.024,-0 0.045,-0.006 0.064,-0.017c0.018,-0.011 0.033,-0.026 0.043,-0.046c0.01,-0.02 0.016,-0.042 0.016,-0.068c0,-0.026 -0.005,-0.048 -0.016,-0.068c-0.01,-0.02 -0.025,-0.035 -0.043,-0.046c-0.018,-0.011 -0.04,-0.017 -0.064,-0.017c-0.024,-0 -0.045,0.006 -0.064,0.017c-0.019,0.011 -0.033,0.026 -0.043,0.046c-0.01,0.02 -0.015,0.042 -0.015,0.068c-0,0.026 0.005,0.048 0.015,0.068c0.01,0.02 0.025,0.035 0.043,0.046c0.019,0.011 0.04,0.017 0.064,0.017Z" style="fill:#fff;fill-rule:nonzero;"/></g><g transform="matrix(610.798019,0,0,610.798019,3095.152329,1386.080323)"><path d="M0.326,0.01c-0.035,0 -0.066,-0.007 -0.094,-0.021c-0.028,-0.014 -0.05,-0.034 -0.067,-0.059c-0.017,-0.025 -0.026,-0.053 -0.027,-0.085l0,-0.172c0.001,-0.032 0.011,-0.06 0.027,-0.085c0.017,-0.025 0.039,-0.045 0.067,-0.06c0.028,-0.015 0.059,-0.022 0.094,-0.022c0.045,-0 0.085,0.011 0.12,0.033c0.035,0.022 0.063,0.052 0.083,0.09c0.02,0.038 0.031,0.081 0.031,0.129c0,0.047 -0.01,0.09 -0.031,0.128c-0.02,0.038 -0.048,0.068 -0.083,0.09c-0.035,0.022 -0.075,0.033 -0.12,0.033Zm-0.269,0.193l0,-0.685l0.132,0l0,0.127l-0.022,0.118l0.021,0.117l0,0.324l-0.13,0Zm0.246,-0.314c0.024,-0 0.045,-0.006 0.064,-0.017c0.018,-0.011 0.033,-0.026 0.043,-0.046c0.01,-0.02 0.016,-0.042 0.016,-0.068c0,-0.026 -0.005,-0.048 -0.016,-0.068c-0.01,-0.02 -0.025,-0.035 -0.043,-0.046c-0.018,-0.011 -0.04,-0.017 -0.064,-0.017c-0.024,-0 -0.045,0.006 -0.064,0.017c-0.019,0.011 -0.033,0.026 -0.043,0.046c-0.01,0.02 -0.015,0.042 -0.015,0.068c-0,0.026 0.005,0.048 0.015,0.068c0.01,0.02 0.025,0.035 0.043,0.046c0.019,0.011 0.04,0.017 0.064,0.017Z" style="fill:#fff;fill-rule:nonzero;"/></g><g transform="matrix(610.798019,0,0,610.798019,3454.301564,1386.080323)"></g></g></g></svg>